Coordinates
version=1
nRows=8
nColumns=27
inDegrees=yes

Units are S.I. units (second, meters, Newtons, ...)
If the header above contains a line with 'inDegrees', this indicates whether rotational values are in degrees (yes) or radians (no).

endheader
time	pelvis_rotation	pelvis_tilt	pelvis_list	pelvis_tx	pelvis_ty	pelvis_tz	hip_flexion_r	hip_adduction_r	hip_rotation_r	knee_angle_r	knee_rotation_r	knee_adduction_r	knee_angle_r_beta	ankle_angle_r	subtalar_angle_r	mtp_angle_r	hip_flexion_l	hip_adduction_l	hip_rotation_l	knee_angle_l	knee_rotation_l	knee_adduction_l	knee_angle_l_beta	ankle_angle_l	subtalar_angle_l	mtp_angle_l
      3.94500000	      3.00628213	    -34.52414321	      5.91008223	      0.02598563	      0.60984222	     -1.15752260	    105.31920435	    -47.08183325	     -5.20218188	     85.21437909	     -9.46411491	      9.84983782	      1.48727149	     15.17615048	     17.14192544	      0.00000000	     96.76124969	    -39.81356777	    -12.28141539	     77.65967882	     -8.27693773	     -9.84699126	      1.35541709	     11.09088252	     30.18332459	      0.00000000
      3.95000000	      2.99951103	    -34.50919603	      5.76054155	      0.02623283	      0.60828327	     -1.15730607	    105.40394907	    -47.14671950	     -5.24109770	     85.49185073	     -9.48960443	      9.85107618	      1.49211428	     15.33444852	     17.05647399	      0.00000000	     97.16083092	    -39.86153277	    -11.94471697	     77.94069180	     -8.38593820	     -9.84797082	      1.36032169	     11.15296283	     30.20763844	      0.00000000
      3.95500000	      2.61988505	    -34.71847970	      5.86112085	      0.02563844	      0.60603909	     -1.15699811	    106.32521625	    -46.57242726	     -4.09268518	     85.91441968	     -9.12362428	      9.71917468	      1.49948950	     15.36112517	     16.81238496	      0.00000000	     97.47827307	    -40.35948304	    -11.59776578	     78.33053296	     -7.93520920	     -9.71702518	      1.36712570	     11.23866252	     30.06331550	      0.00000000
      3.96000000	      2.91701660	    -34.51903236	      5.86263235	      0.02662758	      0.60500713	     -1.15693462	    106.18819398	    -47.04263262	     -4.54549008	     86.11660038	     -9.52837813	      9.85275836	      1.50301822	     15.49663203	     16.91517072	      0.00000000	     97.58713288	    -40.09559175	    -11.85847844	     78.49618197	     -8.58122830	     -9.84970486	      1.37001683	     11.32591806	     30.34711657	      0.00000000
      3.96500000	      3.06640429	    -34.51039688	      5.69429214	      0.02683885	      0.60332514	     -1.15675869	    106.23783609	    -47.29470674	     -4.65547255	     86.40678454	     -9.55012813	      9.85345720	      1.50808289	     15.62420368	     16.97166922	      0.00000000	     98.13587235	    -39.95856829	    -11.30815029	     78.81290451	     -8.64790372	     -9.85023452	      1.37554468	     11.41500486	     30.28939701	      0.00000000
      3.97000000	      2.99829921	    -34.52157703	      5.70474220	      0.02701993	      0.60169966	     -1.15656800	    106.59561744	    -47.22023032	     -4.35807153	     86.71207972	     -9.56463856	      9.85438164	      1.51341129	     15.70743192	     16.85849566	      0.00000000	     98.38430604	    -40.08909852	    -11.21917825	     79.08817471	     -8.74395054	     -9.85130566	      1.38034905	     11.46528397	     30.31965299	      0.00000000
      3.97500000	      2.90641039	    -34.50579532	      5.78489739	      0.02725850	      0.60003901	     -1.15638591	    107.02602492	    -47.10759346	     -3.93295185	     87.03656654	     -9.57796283	      9.85466714	      1.51907466	     15.81173160	     16.77948299	      0.00000000	     98.51224828	    -40.25643354	    -11.25004727	     79.35536201	     -8.84066625	     -9.85198253	      1.38501235	     11.56669555	     30.37288213	      0.00000000
      3.98000000	      2.86188352	    -34.37248022	      6.11548635	      0.02755708	      0.59828232	     -1.15625736	    107.67758499	    -46.99014228	     -3.10419566	     87.41808379	     -9.58655296	      9.85563060	      1.52573339	     15.87565741	     16.71789086	      0.00000000	     98.28107078	    -40.43144680	    -11.63981377	     79.60282988	     -8.93072264	     -9.85349559	      1.38933148	     11.69914044	     30.42963024	      0.00000000
